<svg width="25" height="24" viewBox="0 0 25 24" fill="none" xmlns="http://www.w3.org/2000/svg">
<path d="M2.34979 4.19879C2.4463 3.39194 2.9511 2.72584 3.76899 2.55044C5.04475 2.27686 7.51756 1.95898 12.1211 1.95898C16.7246 1.95898 19.1974 2.27686 20.4732 2.55044C21.2911 2.72584 21.7959 3.39194 21.8924 4.19879C22.0384 5.41894 22.2227 7.42842 22.2227 9.79535C22.2227 14.2172 19.816 18.3548 15.7614 20.3783C14.407 21.0542 13.0851 21.5499 12.1211 21.5499C11.1571 21.5499 9.83521 21.0542 8.48074 20.3783C4.42619 18.3548 2.01953 14.2172 2.01953 9.79535C2.01953 7.42842 2.20385 5.41894 2.34979 4.19879Z" fill="#804012"/>
<path d="M11.0003 5.04287C10.3935 5.21082 10.1229 5.81436 10.1643 6.42496C10.2597 7.83286 10.4524 10.4304 10.6601 11.8249C10.7215 12.2374 10.9683 12.5976 11.3907 12.6748C11.5808 12.7096 11.8216 12.7343 12.1219 12.7343C12.4222 12.7343 12.663 12.7096 12.8532 12.6748C13.2756 12.5976 13.5223 12.2374 13.5837 11.8249C13.7914 10.4304 13.9841 7.83286 14.0795 6.42496C14.121 5.81436 13.8503 5.21082 13.2435 5.04287C12.9444 4.96005 12.5705 4.89795 12.1219 4.89795C11.6733 4.89795 11.2994 4.96005 11.0003 5.04287Z" fill="#FFE0BC"/>
<path d="M12.1219 18.1218C13.2376 18.1218 14.1422 17.2447 14.1422 16.1627C14.1422 15.0807 13.2376 14.2036 12.1219 14.2036C11.0061 14.2036 10.1016 15.0807 10.1016 16.1627C10.1016 17.2447 11.0061 18.1218 12.1219 18.1218Z" fill="#FFE0BC"/>
</svg>
