<svg width="1920" height="1578" viewBox="0 0 1920 1578" fill="none" xmlns="http://www.w3.org/2000/svg">
<g clip-path="url(#clip0_475_416)">
<rect width="1920" height="1578" fill="white"/>
<path d="M815.5 -198C815.5 -198 831.418 113.019 1049 186.5C1391 302 962 632.5 962 632.5" stroke="#00233E" stroke-width="6" stroke-linecap="round"/>
<path d="M963.667 634.994C964.329 634.554 964.789 633.868 964.944 633.088C965.099 632.307 964.937 631.496 964.494 630.833C964.051 630.17 963.364 629.71 962.583 629.555C961.803 629.4 960.994 629.562 960.333 630.006C960.333 630.006 960.333 630.006 960.333 630.006C947.467 638.885 935.245 648.462 923.255 658.447C862.324 710.485 803.489 774.095 786.94 855.446C781.181 909.898 827.483 946.239 859.144 981.945C893.554 1017.6 928.647 1052.82 956.285 1093.8C1016.88 1173.8 1014.56 1288.32 961.596 1371.47C953.458 1385.57 945.807 1397.34 936.328 1410.7C936.155 1410.94 936.086 1411.24 936.135 1411.53C936.184 1411.83 936.347 1412.09 936.59 1412.26C936.832 1412.44 937.133 1412.51 937.427 1412.46C937.721 1412.41 937.984 1412.25 938.158 1412.01C947.728 1398.63 955.468 1386.84 963.707 1372.68C1017.38 1289.48 1020.3 1172.76 959.305 1091.77C909.91 1007.02 798.122 955.923 791.694 856.329C808.045 777.157 866.349 714.192 926.972 662.916C938.861 653.092 951.127 643.573 963.667 634.994Z" fill="#00233E"/>
</g>
<defs>
<clipPath id="clip0_475_416">
<rect width="1920" height="1578" fill="white"/>
</clipPath>
</defs>
</svg>
