<svg width="1920" height="1578" viewBox="0 0 1920 1578" fill="none" xmlns="http://www.w3.org/2000/svg">
<g clip-path="url(#clip0_475_416)">
<rect width="1920" height="1578" fill="white"/>
<path d="M862 -198C862 -198 908.357 53.3885 1095.5 186.5C1357 372.5 1008.5 632.5 1008.5 632.5" stroke="#00233E" stroke-width="6" stroke-linecap="round"/>
<path d="M1010.04 635.073C1010.73 634.665 1011.22 634.003 1011.41 633.231C1011.61 632.459 1011.48 631.64 1011.07 630.957C1010.66 630.273 1010 629.78 1009.23 629.587C1008.45 629.394 1007.64 629.517 1006.96 629.928C1006.96 629.928 1006.96 629.928 1006.96 629.928C995.995 636.542 985.196 643.591 974.77 651.072C918.212 691.051 866.179 751.492 866.296 824.676C886.591 907.068 970.662 944.823 1005.91 1017.02C1047.51 1086.14 1041.92 1174.08 1008.53 1245.61C1003.13 1257.82 997.93 1268.27 991.529 1280.05C991.386 1280.31 991.353 1280.62 991.437 1280.9C991.521 1281.19 991.715 1281.43 991.976 1281.57C992.237 1281.72 992.544 1281.75 992.83 1281.67C993.116 1281.58 993.358 1281.39 993.502 1281.13C993.502 1281.13 993.502 1281.13 993.502 1281.13C999.986 1269.33 1005.26 1258.86 1010.76 1246.6C1044.71 1174.93 1050.94 1085.56 1009.07 1015.26C973.739 942.754 888.934 901.068 871.079 824.73C871.291 753.803 922.056 695.063 978.147 655.803C988.47 648.473 999.172 641.56 1010.04 635.073Z" fill="#00233E"/>
</g>
<defs>
<clipPath id="clip0_475_416">
<rect width="1920" height="1578" fill="white"/>
</clipPath>
</defs>
</svg>
