<svg width="1920" height="1578" viewBox="0 0 1920 1578" fill="none" xmlns="http://www.w3.org/2000/svg">
<g clip-path="url(#clip0_441_798)">
<rect width="1920" height="1578" fill="white"/>
<path d="M815.5 -198C815.5 -198 831.418 113.019 1049 186.5C1391 302 962 632.5 962 632.5M962 632.5C962 632.5 781.5 715.5 707.5 776.5M962 632.5C888.5 809 1217 776.5 1217 776.5" stroke="#00233E" stroke-width="6" stroke-linecap="round"/>
<path d="M1221.58 773.701C1220.84 773.413 1220.01 773.432 1219.28 773.755C1218.56 774.077 1217.99 774.677 1217.7 775.422C1217.41 776.166 1217.43 776.993 1217.76 777.72C1218.08 778.448 1218.68 779.015 1219.42 779.299C1219.42 779.299 1219.42 779.299 1219.42 779.299C1238.05 786.507 1258.16 794.751 1276.91 802.636C1372.75 843.295 1467.57 887.88 1556.42 942.459C1600.45 970.081 1644.13 999.88 1678.77 1038.5C1695.46 1057.73 1711.15 1080.8 1711.48 1106.54C1711.96 1132.72 1692.43 1153.94 1670.77 1167.88C1530.52 1256.97 1358.1 1275.37 1194.46 1270.78C1173.72 1269.96 1152.99 1268.72 1132.5 1266.5C1152.98 1268.82 1173.71 1270.16 1194.45 1271.08C1358.12 1276.42 1530.72 1259.01 1672.23 1170.12C1694.24 1156.12 1714.88 1134.25 1714.54 1106.54C1714.27 1079.41 1698.16 1055.83 1681.36 1036.24C1646.43 996.936 1602.71 966.857 1558.64 938.901C1469.72 883.696 1374.97 838.595 1279.13 797.388C1260.37 789.391 1240.3 781.053 1221.58 773.701Z" fill="#00233E"/>
<path d="M710.07 770.148C710.826 769.899 711.649 769.962 712.358 770.322C713.068 770.683 713.605 771.312 713.852 772.07C714.099 772.828 714.036 773.654 713.675 774.363C713.315 775.072 712.687 775.607 711.93 775.852C711.93 775.852 711.93 775.852 711.93 775.852C692.357 782.282 672.754 789.181 652.916 796.376C555.901 831.906 459.358 871.946 368.693 922.162C323.749 947.509 279.354 975.244 242.023 1011.34C205.11 1044.25 175.801 1104.7 215.519 1145.62C335.948 1270.91 528.598 1263.06 691.408 1251.72C712.254 1249.69 733.228 1247.24 753.479 1244C733.243 1247.34 712.279 1249.89 691.437 1252.02C528.577 1263.98 336.129 1273.47 213.44 1147.38C172.148 1105.45 202.501 1041.91 239.59 1008.87C277.176 972.195 321.635 944.162 366.631 918.492C457.39 867.658 553.905 827.098 650.957 791.023C670.816 783.714 690.381 776.722 710.07 770.148Z" fill="#00233E"/>
</g>
<defs>
<clipPath id="clip0_441_798">
<rect width="1920" height="1578" fill="white"/>
</clipPath>
</defs>
</svg>
