<svg width="1920" height="1578" viewBox="0 0 1920 1578" fill="none" xmlns="http://www.w3.org/2000/svg">
<g clip-path="url(#clip0_475_416)">
<rect width="1920" height="1578" fill="white"/>
<path d="M862 -198C862 -198 902.308 62.3305 1095.5 186.5C1367 361 1008.5 632.5 1008.5 632.5" stroke="#00233E" stroke-width="6" stroke-linecap="round"/>
<path d="M1009.62 635.553C1010.3 635.137 1010.78 634.469 1010.97 633.694C1011.15 632.92 1011.02 632.104 1010.6 631.425C1010.18 630.746 1009.51 630.262 1008.74 630.078C1007.96 629.895 1007.15 630.028 1006.47 630.447C1006.47 630.447 1006.47 630.447 1006.47 630.447C994.217 638.045 982.129 646.1 970.452 654.614C907.078 700.18 848.011 768.272 849.104 850.936C872.954 943.084 968.233 984.69 1008.96 1065.54C1056.8 1142.89 1051.7 1242.13 1015.07 1323.18C1009.14 1337.02 1003.42 1348.88 996.361 1362.25C996.222 1362.51 996.193 1362.82 996.28 1363.1C996.368 1363.39 996.564 1363.63 996.827 1363.77C997.09 1363.91 997.398 1363.94 997.683 1363.85C997.968 1363.76 998.207 1363.57 998.348 1363.31C998.348 1363.31 998.348 1363.31 998.348 1363.31C1005.49 1349.91 1011.29 1338.03 1017.31 1324.14C1054.5 1242.94 1060.23 1142.27 1012.09 1063.74C971.283 982.584 875.222 937.058 853.885 850.931C853.142 770.585 910.916 704.183 973.866 659.318C985.448 650.951 997.447 643.029 1009.62 635.553Z" fill="#00233E"/>
</g>
<defs>
<clipPath id="clip0_475_416">
<rect width="1920" height="1578" fill="white"/>
</clipPath>
</defs>
</svg>
