<svg width="1920" height="1578" viewBox="0 0 1920 1578" fill="none" xmlns="http://www.w3.org/2000/svg">
<g clip-path="url(#clip0_475_416)">
<rect width="1920" height="1578" fill="white"/>
<path d="M862 -198C862 -198 877.918 113.019 1095.5 186.5C1437.5 302 1008.5 632.5 1008.5 632.5" stroke="#00233E" stroke-width="6" stroke-linecap="round"/>
<path d="M1010.08 635.053C1010.75 634.637 1011.24 633.968 1011.42 633.194C1011.6 632.42 1011.47 631.603 1011.05 630.925C1010.63 630.246 1009.96 629.761 1009.19 629.578C1008.42 629.395 1007.6 629.528 1006.92 629.947C1006.92 629.947 1006.92 629.947 1006.92 629.947C993.694 638.147 980.642 646.842 968.034 656.031C899.606 705.216 835.863 778.689 837.029 867.876C862.687 967.157 965.623 1012.25 1009.61 1099.58C1061.3 1183.17 1055.76 1290.4 1016.17 1377.95C1009.76 1392.9 1003.58 1405.71 995.96 1420.15C995.82 1420.41 995.791 1420.72 995.879 1421.01C995.966 1421.29 996.162 1421.53 996.425 1421.67C996.688 1421.81 996.996 1421.84 997.281 1421.75C997.566 1421.66 997.806 1421.47 997.946 1421.21C1005.65 1406.74 1011.91 1393.91 1018.41 1378.91C1058.56 1291.22 1064.72 1182.55 1012.74 1097.78C968.673 1010.14 864.956 961.131 841.81 867.871C840.994 781.002 903.444 709.219 971.448 660.735C983.961 651.693 996.924 643.131 1010.08 635.053Z" fill="#00233E"/>
</g>
<defs>
<clipPath id="clip0_475_416">
<rect width="1920" height="1578" fill="white"/>
</clipPath>
</defs>
</svg>
